<svg xmlns="http://www.w3.org/2000/svg" xmlns:xlink="http://www.w3.org/1999/xlink" width="100" height="100" viewBox="0 0 100 100"><g><rect width="100%" height="100%" fill="#51a7f9"></rect><g transform="translate(50 50) scale(0.69 0.69) rotate(0) translate(-50 -50)" style="fill:#ffffff"><svg fill="#ffffff" xmlns="http://www.w3.org/2000/svg" xmlns:xlink="http://www.w3.org/1999/xlink" version="1.1" x="0px" y="0px" viewBox="0 0 100 100" enable-background="new 0 0 100 100" xml:space="preserve"><path d="M50,1.6C23.1,1.6,1.2,23.4,1.2,50.4S23.1,99.1,50,99.1s48.8-21.8,48.8-48.8S76.9,1.6,50,1.6z M50.2,47.8  c0.9,0.1,22,2.6,22,17.7c0,12.1-11.5,17.7-22.1,17.7c-10.7,0-22.1-5.6-22.1-17.7c0-1.2,1-2.2,2.2-2.2c1.2,0,2.2,1,2.2,2.2  c0,10.4,11.5,13.3,17.7,13.3c6.1,0,17.7-2.8,17.7-13.3c0-11.2-18-13.4-18-13.4c-2.5-0.4-21.9-3.3-21.9-17.6  c0-12.2,11.4-17.7,22.1-17.7c10.6,0,22.1,5.5,22.1,17.7c0,1.2-1.1,2.2-2.2,2.2c-1.2,0-2.2-1.1-2.2-2.2C67.7,24,56.1,21.2,50,21.2  c-6.2,0-17.7,2.7-17.7,13.3C32.3,45.6,49.4,47.7,50.2,47.8z"></path></svg></g></g></svg>